 <svg version="1.0" xmlns="http://www.w3.org/2000/svg" width="700.000000pt" height="645.000000pt" viewBox="0 0 700.000000 645.000000" preserveAspectRatio="xMidYMid meet">
<metadata>
Created by potrace 1.12, written by Peter Selinger 2001-2015
</metadata>
<g transform="translate(0.000000,645.000000) scale(0.100000,-0.100000)" fill="#000000" stroke="none">
<path d="M1498 5719 c-67 -16 -206 -86 -212 -107 -4 -11 -29 -42 -55 -69 -62
-63 -78 -94 -96 -190 -13 -66 -15 -252 -15 -1231 0 -798 3 -1175 11 -1225 21
-133 109 -255 239 -331 35 -21 70 -45 76 -54 11 -16 150 -17 1867 -17 l1854 0
30 30 c34 34 57 52 128 98 42 27 57 46 97 124 26 51 52 118 57 150 7 33 11
208 11 423 0 372 2 390 37 390 26 0 201 -89 236 -119 19 -17 40 -31 47 -31 20
0 238 -108 247 -122 4 -7 32 -24 62 -38 29 -14 79 -37 109 -52 42 -20 60 -24
69 -16 11 8 13 161 11 792 l-3 781 -22 3 c-17 3 -26 -3 -33 -22 -5 -15 -22
-31 -37 -37 -16 -6 -65 -29 -111 -50 -45 -22 -87 -39 -92 -39 -14 0 -82 -41
-118 -72 -18 -15 -38 -28 -43 -28 -15 0 -229 -101 -291 -138 -25 -15 -29 -15
-48 3 -19 18 -20 28 -20 389 0 399 -5 447 -54 544 -30 59 -114 172 -128 172
-6 0 -25 10 -42 23 -39 29 -98 54 -156 67 -56 12 -3559 12 -3612 -1z m205
-359 c42 -25 47 -40 47 -158 0 -94 0 -94 -34 -128 l-34 -34 -107 0 c-58 0
-115 5 -127 11 -40 22 -66 147 -36 177 10 10 10 17 0 33 -18 28 -6 74 25 99
22 17 41 20 129 20 85 0 109 -3 137 -20z m687 -7 l32 -26 -4 -118 c-3 -108 -5
-119 -27 -143 -24 -25 -29 -26 -137 -26 -112 0 -114 0 -149 31 l-35 31 0 114
0 114 38 24 c33 22 48 25 144 25 101 1 108 0 138 -26z m694 -4 c24 -28 26 -37
26 -133 0 -91 -3 -107 -23 -137 l-23 -34 -115 -3 c-106 -2 -118 -1 -150 21
l-34 23 -3 126 -3 127 38 20 c31 17 58 20 150 21 l111 0 26 -31z m670 10 c26
-20 26 -22 26 -145 0 -119 -1 -126 -25 -149 -23 -24 -31 -25 -134 -25 -60 0
-121 4 -134 9 -33 13 -47 58 -47 156 0 165 9 174 176 175 98 0 114 -3 138 -21z
m510 9 c5 -10 7 -10 12 0 8 17 116 16 158 -2 l33 -14 7 -104 c4 -57 5 -110 2
-118 -2 -8 -7 -27 -10 -42 -8 -36 -48 -48 -167 -48 -123 0 -145 8 -158 57 -12
43 -14 208 -2 237 15 38 111 64 125 34z m850 -8 l46 -19 0 -119 c0 -126 -3
-135 -53 -166 -22 -14 -48 -16 -139 -14 l-112 3 -23 34 c-25 37 -31 96 -10
105 10 5 10 7 0 12 -7 3 -13 16 -13 29 0 13 6 26 13 29 10 5 10 7 0 12 -21 9
-15 51 13 83 26 31 26 31 129 31 80 0 113 -4 149 -20z m-3419 -2174 c18 -8 38
-23 44 -34 14 -26 14 -212 1 -247 -15 -39 -65 -55 -168 -55 -118 0 -149 11
-161 58 -11 41 -8 227 4 254 4 10 21 22 39 27 50 15 202 13 241 -3z m672 4
c43 -15 53 -47 53 -159 0 -171 -15 -185 -184 -179 -100 3 -106 4 -135 32 l-31
30 0 113 c0 109 1 114 26 136 14 12 35 25 47 29 36 10 192 9 224 -2z m715 -18
c21 -21 23 -31 23 -147 0 -116 -2 -126 -23 -147 -21 -21 -31 -23 -140 -23 -84
0 -125 4 -147 15 l-30 15 -3 128 c-1 75 2 135 8 147 16 30 64 39 182 37 97 -2
110 -5 130 -25z m647 18 c19 -5 38 -15 43 -22 4 -7 8 -72 8 -144 0 -177 8
-169 -164 -169 -178 0 -171 -7 -171 170 0 91 4 138 12 146 26 26 205 38 272
19z m726 -10 c23 -19 22 -292 -2 -311 -12 -10 -51 -14 -149 -14 -176 0 -169
-7 -169 169 0 144 5 161 53 170 53 9 251 -1 267 -14z m652 5 c21 -9 41 -21 45
-28 4 -7 8 -66 8 -132 0 -66 -4 -125 -8 -132 -17 -27 -82 -43 -176 -43 -120 0
-142 8 -155 57 -14 48 -14 103 -1 103 6 0 10 11 10 25 0 14 -4 25 -10 25 -13
0 -13 49 1 88 6 19 21 35 37 41 44 16 208 13 249 -4z"></path>
<path d="M4714 1961 c-5 -5 -17 -11 -27 -13 -17 -3 -18 -30 -18 -492 -1 -436
1 -490 15 -498 9 -5 44 -8 78 -6 57 3 63 5 66 26 5 36 28 37 74 3 40 -30 46
-31 144 -31 l101 0 67 61 c43 40 66 68 66 83 0 12 7 31 15 42 21 28 21 310 0
350 -8 16 -15 38 -15 49 0 12 -20 41 -45 65 -46 45 -104 69 -172 70 -46 0
-135 -21 -155 -38 -9 -7 -25 -12 -35 -10 -16 3 -18 16 -18 160 0 145 -1 157
-20 169 -24 15 -108 22 -121 10z m359 -491 c41 -48 61 -112 54 -178 -10 -105
-65 -185 -128 -185 -32 0 -109 55 -133 95 -21 35 -22 168 -1 209 25 47 91 89
141 89 35 0 47 -5 67 -30z"></path>
<path d="M4318 1953 l-28 -4 0 -160 c0 -134 -2 -161 -15 -166 -9 -3 -23 1 -33
9 -22 19 -90 38 -136 38 -72 0 -129 -21 -173 -63 -57 -55 -83 -108 -90 -190
-3 -37 -10 -70 -14 -73 -12 -7 -12 -91 0 -98 4 -3 11 -33 15 -68 8 -84 38
-142 98 -189 l50 -39 107 0 c95 0 110 2 126 20 10 11 24 20 30 20 7 0 18 7 25
15 18 22 34 13 40 -21 5 -28 7 -29 69 -32 35 -2 68 1 74 7 6 6 10 190 10 493
l1 483 -25 12 c-23 12 -75 14 -131 6z m-76 -500 l48 -47 0 -98 c0 -94 -1 -98
-30 -132 -42 -47 -110 -79 -141 -67 -37 14 -80 65 -89 104 -13 58 -4 195 15
223 34 52 53 64 102 64 43 0 52 -4 95 -47z"></path>
<path d="M1935 1888 c-27 -11 -59 -25 -70 -31 -11 -6 -31 -16 -44 -23 -38 -20
-128 -121 -136 -151 -3 -16 -12 -35 -19 -43 -8 -8 -16 -39 -19 -69 -4 -30 -11
-59 -17 -65 -15 -15 -12 -167 5 -196 8 -14 14 -44 15 -66 0 -24 6 -47 15 -54
8 -6 17 -22 21 -33 11 -37 56 -88 111 -128 29 -22 56 -39 61 -39 6 0 29 -9 53
-20 38 -17 66 -20 202 -20 124 0 164 3 188 16 17 8 49 19 72 22 l42 8 3 232
c1 149 -1 240 -8 252 -10 19 -22 20 -190 20 -205 0 -197 4 -196 -90 l1 -55 89
-3 c50 -2 96 -8 103 -14 9 -7 13 -39 13 -99 l0 -89 -32 -20 c-40 -24 -132 -27
-174 -5 -16 8 -36 15 -45 15 -19 0 -109 89 -109 108 0 8 -9 25 -20 39 -17 22
-20 41 -20 138 0 94 3 116 19 136 10 13 21 34 25 46 4 12 30 42 57 66 59 51
146 82 211 74 60 -7 142 -30 159 -44 8 -6 26 -14 41 -18 15 -4 32 -13 39 -21
23 -28 39 4 39 80 0 66 -2 75 -28 99 -15 15 -36 27 -45 27 -9 0 -39 9 -67 20
-72 29 -272 27 -345 -2z"></path>
<path d="M2652 1873 l-22 -22 2 -448 3 -448 72 -3 c42 -2 82 2 94 9 l22 11 -6
324 c-4 264 -3 325 8 334 10 9 16 7 24 -9 6 -11 11 -28 11 -38 0 -16 23 -82
56 -160 8 -17 14 -39 14 -50 0 -10 7 -28 15 -39 8 -12 19 -39 24 -60 13 -53
41 -133 57 -166 8 -14 14 -37 14 -50 1 -12 11 -41 24 -63 l23 -40 81 -3 c82
-3 82 -3 92 25 6 15 17 40 25 55 8 14 15 37 15 50 0 13 7 33 15 44 8 10 15 28
15 39 0 12 9 38 20 60 11 22 20 46 20 55 0 8 7 29 16 45 9 17 20 44 25 60 4
17 20 62 34 100 14 39 32 88 39 110 7 23 18 40 26 40 13 0 15 -49 17 -334 1
-267 4 -335 15 -342 18 -12 146 -11 153 1 3 5 6 213 6 462 1 387 -2 454 -14
463 -23 17 -225 9 -254 -10 -25 -17 -63 -84 -63 -113 0 -10 -7 -27 -15 -38 -8
-10 -15 -26 -15 -34 0 -9 -9 -33 -20 -55 -11 -22 -20 -46 -20 -55 0 -8 -9 -32
-20 -53 -11 -20 -20 -45 -20 -55 0 -10 -6 -26 -14 -37 -7 -11 -16 -34 -20 -50
-8 -37 -42 -95 -55 -95 -11 0 -61 105 -61 129 0 9 -7 25 -15 35 -8 11 -15 30
-15 43 0 12 -9 37 -20 55 -11 18 -20 42 -20 53 0 12 -9 38 -20 60 -11 22 -20
49 -20 61 0 12 -7 27 -15 34 -8 7 -15 25 -15 39 0 28 -26 59 -68 81 -13 6 -69
13 -125 14 -94 1 -104 0 -125 -21z"></path>
</g>
</svg>